STARTFONT 2.3
FONT -FontForge-Tangerine-Book-R-Normal--24-240-72-72-P-89-ISO10646-1
SIZE 24 72 72  4
FONTBOUNDINGBOX 40 26 -8 -7
COMMENT "Generated by fontforge, http://fontforge.sourceforge.net"
COMMENT "Copyright (c) 2010 by Toshi Omagari. All rights reserved."
STARTPROPERTIES 40
FOUNDRY "FontForge"
FAMILY_NAME "Tangerine"
WEIGHT_NAME "Book"
SLANT "R"
SETWIDTH_NAME "Normal"
ADD_STYLE_NAME ""
PIXEL_SIZE 24
POINT_SIZE 240
RESOLUTION_X 72
RESOLUTION_Y 72
SPACING "P"
AVERAGE_WIDTH 89
CHARSET_REGISTRY "ISO10646"
CHARSET_ENCODING "1"
FONTNAME_REGISTRY ""
CHARSET_COLLECTIONS "ISO10646-1"
BITS_PER_PIXEL 4
FONT_NAME "Tangerine-Regular"
FACE_NAME "Tangerine Regular"
COPYRIGHT "Copyright (c) 2010 by Toshi Omagari. All rights reserved."
FONT_VERSION "1.3"
FONT_ASCENT 18
FONT_DESCENT 6
UNDERLINE_POSITION -2
UNDERLINE_THICKNESS 2
X_HEIGHT 5
CAP_HEIGHT 14
RAW_ASCENT 750
RAW_DESCENT 250
NORM_SPACE 4
RELATIVE_WEIGHT 40
RELATIVE_SETWIDTH 50
SUPERSCRIPT_X 0
SUPERSCRIPT_Y 11
SUPERSCRIPT_SIZE 15
SUBSCRIPT_X 0
SUBSCRIPT_Y 3
SUBSCRIPT_SIZE 15
AVG_LOWERCASE_WIDTH 58
AVG_UPPERCASE_WIDTH 170
ENDPROPERTIES
CHARS 233
STARTCHAR space
ENCODING 32
SWIDTH 150 0
DWIDTH 4 0
BBX 1 1 0 0
BITMAP
00
ENDCHAR
STARTCHAR exclam
ENCODING 33
SWIDTH 189 0
DWIDTH 5 0
BBX 7 14 1 0
BITMAP
00000460
00002E20
00006900
0000B300
0002A000
00074000
00090000
00350000
00700000
01600000
00000000
00000000
49000000
94000000
ENDCHAR
STARTCHAR quotedbl
ENCODING 34
SWIDTH 214 0
DWIDTH 5 0
BBX 6 4 1 6
BITMAP
019092
094670
451800
303000
ENDCHAR
STARTCHAR numbersign
ENCODING 35
SWIDTH 289 0
DWIDTH 7 0
BBX 8 9 0 0
BITMAP
00001010
00044170
00190720
06CFEFF2
00814400
01707000
4AFE9700
08030000
05040000
ENDCHAR
STARTCHAR dollar
ENCODING 36
SWIDTH 269 0
DWIDTH 6 0
BBX 7 12 0 -2
BITMAP
00000400
00000600
00189A10
00736510
00884100
001E2000
0005B000
2331A100
9132B000
69DB3000
05000000
04000000
ENDCHAR
STARTCHAR percent
ENCODING 37
SWIDTH 388 0
DWIDTH 9 0
BBX 9 11 0 -2
BITMAP
0000000260
02CE200800
1B4A407100
5405144000
7302262830
15108363B0
0006280080
00350B0340
01700AA500
0710000000
1400000000
ENDCHAR
STARTCHAR ampersand
ENCODING 38
SWIDTH 507 0
DWIDTH 12 0
BBX 12 12 0 0
BITMAP
00003DC00000
000081C10000
000440900000
000641700000
000569100000
0007B1000000
0195A00007B9
0B20A1006202
680059032000
78000C630000
3D1004D70002
06CA8318DB81
ENDCHAR
STARTCHAR quotesingle
ENCODING 39
SWIDTH 120 0
DWIDTH 3 0
BBX 3 4 1 6
BITMAP
03B0
0A10
6300
1000
ENDCHAR
STARTCHAR parenleft
ENCODING 40
SWIDTH 250 0
DWIDTH 6 0
BBX 6 19 2 -3
BITMAP
000002
000044
000280
000A00
007500
00C000
068000
0B3000
1D0000
4A0000
770000
950000
A30000
A20000
A10000
910000
720000
350000
030000
ENDCHAR
STARTCHAR parenright
ENCODING 41
SWIDTH 276 0
DWIDTH 7 0
BBX 7 19 0 -3
BITMAP
00000200
00000700
00000800
00000720
00000640
00000750
00000840
00000A40
00000D10
00001E00
00004B00
00008600
0000D100
0003A000
000A2000
00380000
00A00000
07200000
12000000
ENDCHAR
STARTCHAR asterisk
ENCODING 42
SWIDTH 188 0
DWIDTH 5 0
BBX 4 5 1 5
BITMAP
0070
549C
3B51
5490
4040
ENDCHAR
STARTCHAR plus
ENCODING 43
SWIDTH 301 0
DWIDTH 7 0
BBX 6 7 1 0
BITMAP
000300
000900
003600
8FFFF6
009000
018000
021000
ENDCHAR
STARTCHAR comma
ENCODING 44
SWIDTH 112 0
DWIDTH 3 0
BBX 2 4 0 -2
BITMAP
0B
0B
17
60
ENDCHAR
STARTCHAR hyphen
ENCODING 45
SWIDTH 245 0
DWIDTH 6 0
BBX 6 1 0 3
BITMAP
1ACEE3
ENDCHAR
STARTCHAR period
ENCODING 46
SWIDTH 112 0
DWIDTH 3 0
BBX 2 2 0 0
BITMAP
05
3B
ENDCHAR
STARTCHAR slash
ENCODING 47
SWIDTH 210 0
DWIDTH 5 0
BBX 10 17 -1 -1
BITMAP
0000000001
0000000008
0000000053
0000000170
0000000710
0000002600
0000008000
0000044000
0000070000
0000620000
0001700000
0007100000
0026000000
0080000000
0440000000
0800000000
6300000000
ENDCHAR
STARTCHAR zero
ENCODING 48
SWIDTH 349 0
DWIDTH 8 0
BBX 7 8 1 0
BITMAP
002BED30
03B54AC0
0A1001E0
550000B0
92000090
A3000420
7A003500
1ADA5000
ENDCHAR
STARTCHAR one
ENCODING 49
SWIDTH 189 0
DWIDTH 5 0
BBX 5 8 1 0
BITMAP
025A50
4ECB00
00B200
03A000
0A3000
2C0000
870000
C20000
ENDCHAR
STARTCHAR two
ENCODING 50
SWIDTH 277 0
DWIDTH 7 0
BBX 7 8 0 0
BITMAP
0018CC10
00600A70
00300860
00000B10
00008300
00271000
06700210
78BDC700
ENDCHAR
STARTCHAR three
ENCODING 51
SWIDTH 253 0
DWIDTH 6 0
BBX 9 12 -2 -4
BITMAP
000057B900
0001300E20
0000000D10
0000019600
00028B3000
000316B000
000000A600
0000008700
0000009400
100003B000
46126B1000
0BEC600000
ENDCHAR
STARTCHAR four
ENCODING 52
SWIDTH 363 0
DWIDTH 9 0
BBX 10 13 1 0
BITMAP
0000000001
0000000058
00000019B0
0000025C20
0000345700
000430B100
0052048000
05200B2000
49423B0520
659CFFC400
0000C20000
0004C00000
0008500000
ENDCHAR
STARTCHAR five
ENCODING 53
SWIDTH 250 0
DWIDTH 6 0
BBX 10 13 -2 -4
BITMAP
0000000031
00001EFFB0
0000521000
0000600000
0001900000
0002FA0000
00003D8000
000004D000
000000E000
000001B000
0000084000
7302860000
3EEB300000
ENDCHAR
STARTCHAR six
ENCODING 54
SWIDTH 296 0
DWIDTH 7 0
BBX 10 12 1 0
BITMAP
000004BEC1
0000872056
0008200000
0073000000
0290000000
0B68C40000
2D305D0000
77001E0000
B3002B0000
C200540000
A602600000
3DA5000000
ENDCHAR
STARTCHAR seven
ENCODING 55
SWIDTH 326 0
DWIDTH 8 0
BBX 10 12 -1 -4
BITMAP
0006EFEDA9
0009200184
0041000180
0000000910
0000007400
0000047000
00002A0000
0001B10000
000B300000
0097000000
05C0000000
1B20000000
ENDCHAR
STARTCHAR eight
ENCODING 56
SWIDTH 305 0
DWIDTH 7 0
BBX 8 12 1 0
BITMAP
00003630
000744D3
00470067
00690073
002E3360
0009E400
04728C00
47000E30
C1000A50
F0000910
D6003600
3CB84000
ENDCHAR
STARTCHAR nine
ENCODING 57
SWIDTH 304 0
DWIDTH 7 0
BBX 9 12 -1 -4
BITMAP
00006DE600
0007A6BE10
001A001F20
0084000D10
00C2001E00
00E1007A00
00C815D500
004DE8A000
0000035000
0000170000
5125810000
8EC6000000
ENDCHAR
STARTCHAR colon
ENCODING 58
SWIDTH 156 0
DWIDTH 4 0
BBX 4 6 0 0
BITMAP
0094
00C1
0000
0000
2B00
7600
ENDCHAR
STARTCHAR semicolon
ENCODING 59
SWIDTH 156 0
DWIDTH 4 0
BBX 4 8 0 -2
BITMAP
0094
00C1
0000
0000
0600
1D00
1700
6000
ENDCHAR
STARTCHAR less
ENCODING 60
SWIDTH 301 0
DWIDTH 7 0
BBX 6 5 1 1
BITMAP
000026
015971
6C5000
176000
001630
ENDCHAR
STARTCHAR equal
ENCODING 61
SWIDTH 301 0
DWIDTH 7 0
BBX 6 4 1 1
BITMAP
4FFFFB
000000
000000
DFFFF2
ENDCHAR
STARTCHAR greater
ENCODING 62
SWIDTH 301 0
DWIDTH 7 0
BBX 7 6 0 1
BITMAP
00400000
005B4000
00019910
00017C30
028B5000
3A300000
ENDCHAR
STARTCHAR question
ENCODING 63
SWIDTH 285 0
DWIDTH 7 0
BBX 9 13 1 0
BITMAP
0000167100
000486AD00
0006000D30
0000000B20
0000001A00
0000029100
0000660000
0026100000
02A0000000
03C1000000
0000000000
4900000000
9400000000
ENDCHAR
STARTCHAR at
ENCODING 64
SWIDTH 492 0
DWIDTH 12 0
BBX 10 12 1 -3
BITMAP
0004BEEB20
00983017D1
0740000049
1800239609
720500C007
9018088005
A049596031
B02D66A720
8500002000
2D10000050
05D6224610
0027873000
ENDCHAR
STARTCHAR A
ENCODING 65
SWIDTH 996 0
DWIDTH 24 0
BBX 24 15 1 0
BITMAP
000000000000389AABB95100
000000000004400000158DC1
000000000022000000003A70
000000000040000000053B00
00000000003000000150A300
00000000000000001601B000
000000000000000270066000
0000000000000027000B2000
000000000009FFFFEEED0000
0200000000000640000B0000
5200000000006300003A0000
900000000017200000490000
B300000005700000005A0010
7E51002793000000003E3340
07DFDC8300000000000AE600
ENDCHAR
STARTCHAR B
ENCODING 66
SWIDTH 638 0
DWIDTH 15 0
BBX 16 16 0 0
BITMAP
0000000000014200
0000000367A57710
00000152033004D1
0000040008000098
000030005400007A
00000000B00000A7
00000002A01217B0
00000006504CD500
0000000A10007C10
0000001900000990
00000072000003E0
00000170000001F1
16101500000001E0
09E8300000000680
004BA30000004A10
0000389765565000
ENDCHAR
STARTCHAR C
ENCODING 67
SWIDTH 557 0
DWIDTH 13 0
BBX 15 15 1 0
BITMAP
00000045667AB600
0000351000002D10
0005400000000600
0046000000000100
01B0000000000000
0860000000000000
0D20000000000000
2E00000000000000
4D00000000000000
5E00000000000000
3F20000000010000
0E70000000060000
06E1000000170000
007C200001B30000
0003987669500000
ENDCHAR
STARTCHAR D
ENCODING 68
SWIDTH 799 0
DWIDTH 19 0
BBX 19 16 0 0
BITMAP
00000000000000012000
000000589BCB62730000
000017200003BD700000
000061000001908A0000
0001400000083006A000
00020000001B00009700
00000000007500001D10
0000000000C100000880
0000000003A0000003D0
000000000840000000E0
000000001B00000000D0
000000006500000000C0
00000001900000000280
00577528100000000810
071247DD730000006300
2B76540159CBA9761000
ENDCHAR
STARTCHAR E
ENCODING 69
SWIDTH 494 0
DWIDTH 12 0
BBX 13 15 1 0
BITMAP
0000004567A600
00000810001C10
00005800000400
00007A00000000
00002D92000000
000028FB000000
00175200000000
02900000000000
0B100000000000
3B000000000000
79000000000000
8B000000014000
5E100000071000
0B900000680000
007A7567500000
ENDCHAR
STARTCHAR F
ENCODING 70
SWIDTH 626 0
DWIDTH 15 0
BBX 19 15 1 0
BITMAP
00000001689BCEFFFFE0
00000035100000522420
00000240000008100000
00000300000039000000
00000000000094000000
000000000000D0000000
00000000000490000000
0000001CFFFFFDB00000
00000000000B20000000
01000000002A00000000
34000000009200000000
A0000000037000000000
B2000000280000000000
6C200005600000000000
07DCA972000000000000
ENDCHAR
STARTCHAR G
ENCODING 71
SWIDTH 571 0
DWIDTH 14 0
BBX 18 19 -1 -4
BITMAP
0000000000016BDEB2
00000000005A6202A9
000000000750000028
000000008300000052
000000056000000020
0000001B0000000000
000000760000000000
000000C30000000000
000001F10000000000
000002F00000073000
000001F100002E1000
000000B70001AA0000
021000197542B30000
370000000002B00000
B30000000009200000
D30000000046000000
B70000000270000000
3E3000005500000000
03A976551000000000
ENDCHAR
STARTCHAR H
ENCODING 72
SWIDTH 865 0
DWIDTH 21 0
BBX 27 16 1 0
BITMAP
000000000000000000000004AC50
00000005789AA810000000651270
0000006100007600000016000010
0000032000076000000060000000
00000400001D0000000620000000
0000000000790000002700000000
0000000000D40000009100000000
0000000003E00000029000000000
00016ADEEFA00000094000000000
006B73100A99AA974D0000000000
076000001D000025BF9000000000
4600000086000000870000000000
90000002B0000000C20000000000
B100001B20000001E00200000000
991015A200000002F25100000000
1BEEB60000000000CC2000000000
ENDCHAR
STARTCHAR I
ENCODING 73
SWIDTH 554 0
DWIDTH 13 0
BBX 17 15 1 0
BITMAP
000000000000146D60
00000000000321B200
0000000000400A3000
0000000004002C0000
000000003000870000
000000004000C20000
000000031001C00000
000000050006700000
00000004000B200000
001000014038000000
0620000023A4000000
740000000740000000
B40000007600000000
7D51126A4000000000
07DFEB610000000000
ENDCHAR
STARTCHAR J
ENCODING 74
SWIDTH 634 0
DWIDTH 15 0
BBX 20 19 0 -4
BITMAP
000000000000000146D6
00000000000000431B20
0000000000000400A300
0000000000004002B000
00000000000400076000
000000000004000C2000
000000000031001C0000
00000000005000680000
00000000004100A20000
00000010000301B00000
00014410000017710000
0033000000001B000000
04200000000084000000
25000000000390000000
90000000001A10000000
C0000000019100000000
E2000000391000000000
8C30025A700000000000
08DFEB71000000000000
ENDCHAR
STARTCHAR K
ENCODING 75
SWIDTH 936 0
DWIDTH 22 0
BBX 23 15 1 0
BITMAP
0000000069ACCC710004ADA0
000000272000067001750090
000001600000470027100010
000005000000B10360000000
000004000002B02600000000
000004000006716000000000
00000400000A490000000000
00000100000D1C1000000000
00000000001C086000000000
03200000005704B000000000
2600000000A100D200000000
910000000460007900000000
B30000001700001E30000000
8B10000450000004D4004000
08CA9761000000004CC94000
ENDCHAR
STARTCHAR L
ENCODING 76
SWIDTH 657 0
DWIDTH 16 0
BBX 18 15 0 0
BITMAP
00000000000004BEC1
0000000000006512B5
000000000005200044
000000000026000030
000000000081000000
000000000190000000
000000000740000000
000000000C00000000
000000002A00000000
000000006500000000
00000000A000000000
000000037000000000
034797270000001300
280004EEA520137000
1B9776249CEFD70000
ENDCHAR
STARTCHAR M
ENCODING 77
SWIDTH 1219 0
DWIDTH 29 0
BBX 30 15 1 0
BITMAP
0000000000278AABB9620000000048
0000000003500000148CC4000005C1
00000000140000000004C000002D20
0000000040000000001B500001A700
0000000030000000004D000113D000
0000000000000000037700020A5000
000000000000000021C200101D0000
012000000000000232C00100590000
170000000000001407802000950000
74000000000001500B512000C20000
B3000000000016000E130000E00000
B5000000000360002D300000E00000
8C000000017400005B200000F10100
1DB20002782000007A000000D72500
019EDCB720000000820000005E8000
ENDCHAR
STARTCHAR N
ENCODING 78
SWIDTH 990 0
DWIDTH 24 0
BBX 30 15 1 0
BITMAP
000000018ACD812000000000005DE3
0000001610017DA000000000068137
00000020000002C600000000370002
000000000000024740000000800000
0000000000000510A1000005100000
000000000000060029000005000000
000000000000060007400041000000
000000000000420001B00040000000
040000000000500000840130000000
4300000000032000002B0400000000
9000000000050000000B2400000000
B10000000060000000067300000000
89000000171000000001C300000000
1DA41127910000000000C200000000
019DFDA40000000000007100000000
ENDCHAR
STARTCHAR O
ENCODING 79
SWIDTH 606 0
DWIDTH 15 0
BBX 15 15 1 0
BITMAP
0000004ADFEA2000
00002972114AE300
0003700000009D00
0027000000000D40
0090000000000880
0550000000000690
0B10000000000680
1C00000000000760
3B00000000000A10
4B00000000001A00
3E00000000008200
1F50000000046000
09E2000000570000
01CE720149500000
0007CFEC71000000
ENDCHAR
STARTCHAR P
ENCODING 80
SWIDTH 783 0
DWIDTH 19 0
BBX 20 16 1 0
BITMAP
00000000000000033000
00000000002778A57500
00000000054004300790
000000005100090000B5
0000000310005600005C
000000040000A100002E
000000110001B000003D
00000000000470000079
000000000049200002D2
00000000002D40016C30
0400000000566AA95000
60000000009000000000
80000000053000000000
A1000000240000000000
4B200004300000000000
04BCA861000000000000
ENDCHAR
STARTCHAR Q
ENCODING 81
SWIDTH 563 0
DWIDTH 14 0
BBX 18 19 1 -4
BITMAP
000001345694000000
00003200001B700000
000420000002F20000
001500000000B70000
007000000000890000
009000000000790000
047000000000970000
066000000000B30000
076000000001C00000
059000000008300000
01D300000027000000
003DA5000260000000
000000004400000000
152024661000000000
37BFA3000000000000
00039C500000000000
0000029C6100000000
000000029E94101481
00000000028CFEC700
ENDCHAR
STARTCHAR R
ENCODING 82
SWIDTH 854 0
DWIDTH 21 0
BBX 20 16 1 0
BITMAP
00000000000000340000
0000000000467A468000
00000000351044004B00
000000042000A0000A50
00000032000570000780
00000000000B20000860
00000000001D00000B10
00000000005800019400
0000000000A36B871000
0000000001B069000000
0300000006502D000000
4200000009000D200000
70000000630008700000
A0000003500002D10000
860000540000008B1003
19CA971000000008DB60
ENDCHAR
STARTCHAR S
ENCODING 83
SWIDTH 480 0
DWIDTH 12 0
BBX 12 15 1 0
BITMAP
000000013691
000000400038
000003600034
000005900010
000002F20000
000000AB0000
0000002E6000
00000005E100
00000000A800
020000003E00
360000000D00
A20000000B00
B50000001700
5D3000016000
04BA97640000
ENDCHAR
STARTCHAR T
ENCODING 84
SWIDTH 577 0
DWIDTH 14 0
BBX 19 15 1 0
BITMAP
00000029DEFEDB963000
000006831012469CDD40
00005300000000420100
00015000000007100000
00040000000046000000
000400000000B0000000
00020000000480000000
00000000000A30000000
00000000001C00000000
00000000007600000000
1400000000B000000000
92000000073000000000
B3000000450000000000
7C200016400000000000
08DCA971000000000000
ENDCHAR
STARTCHAR U
ENCODING 85
SWIDTH 752 0
DWIDTH 18 0
BBX 20 15 1 0
BITMAP
00017ABDC930000002C1
00361000192000000960
02400000610000002C00
05000006200000009500
1400004500000002D000
410000900000000A7000
400006400000003F2000
21000B000000009B0000
00003900000005A60000
00008600000016C20000
0000A400000071D00000
0000C400000724A00000
0000B600006305900200
00009D31493006C16100
00001BED810001DB2000
ENDCHAR
STARTCHAR V
ENCODING 86
SWIDTH 661 0
DWIDTH 16 0
BBX 17 15 1 0
BITMAP
0004ABD7000004EB20
0045001A8000151AB0
01500000D2000001E0
0500000067000000C0
040000002A000000B0
310000000B00000270
000000000C00000610
000000000C00001400
000000000B00003000
000000000B00020000
000000002A00100000
000000005701000000
00000000A420000000
00000000E300000000
000000046000000000
ENDCHAR
STARTCHAR W
ENCODING 87
SWIDTH 822 0
DWIDTH 20 0
BBX 22 15 1 0
BITMAP
0007BED500000000000AC1
0171006F200000620032B5
0500000880000550000075
04000002B0003A00000083
31000000B0008700000090
2000000090018500000170
0000000090108500000610
0000000080107600001400
0000000071006700004000
0000000361005800040000
0000000630004A00300000
0000000810003B02100000
0000001900003B21000000
0000006400003C20000000
0000008000003800000000
ENDCHAR
STARTCHAR X
ENCODING 88
SWIDTH 813 0
DWIDTH 20 0
BBX 20 15 1 0
BITMAP
00000003D90000018DE2
000000162E10004942A4
000000600A4005600061
00000000086035000030
00000000058060000000
0000000003A400000000
0000000000D400000000
0000000000D100000000
00000000058500000000
00000000143A00000000
02000000500D20000000
16000005100790000000
740000620001D5000030
B911492000004E711700
5DFC7000000003BEC200
ENDCHAR
STARTCHAR Y
ENCODING 89
SWIDTH 662 0
DWIDTH 16 0
BBX 21 18 0 -3
BITMAP
0000000049D200000003A0
0000000430B40000000B50
0000000100C20000004C00
0000000001D0000000C500
000000000680000006C000
000000000A3000001E4000
000000001C000000AB0000
0000000049000005E20000
0001520085000049800000
00651000B300045B100000
08100000B7128584000000
560000005EE92380000000
A300000000001900000000
C200000000008200000000
B500000000083000000000
6C00000002920000000000
0BC4101499100000000000
007DFDB720000000000000
ENDCHAR
STARTCHAR Z
ENCODING 90
SWIDTH 625 0
DWIDTH 15 0
BBX 16 16 1 0
BITMAP
0000000000000005
00000019DFFFFFF5
0000009410000340
0000042000004400
0000050000043000
0000010000430000
0000000004300000
0000000043000000
0000000530000000
0000005300000000
0000053000000000
0000620000000100
0006200000000600
0062000000006100
09DDA63101394000
73026ADFED920000
ENDCHAR
STARTCHAR bracketleft
ENCODING 91
SWIDTH 318 0
DWIDTH 8 0
BBX 10 17 1 -2
BITMAP
00001E5561
00005B0000
0000870000
0000C30000
0001E00000
0004A00000
0008700000
000B300000
000D000000
004A000000
0087000000
00B3000000
01E0000000
04C0000000
0880000000
0C50000000
1F86400000
ENDCHAR
STARTCHAR backslash
ENCODING 92
SWIDTH 212 0
DWIDTH 5 0
BBX 5 17 0 -1
BITMAP
010000
340000
170000
070000
070000
070000
043000
016000
007000
007000
007000
005200
002500
000700
000800
000700
000520
ENDCHAR
STARTCHAR bracketright
ENCODING 93
SWIDTH 339 0
DWIDTH 8 0
BBX 9 17 0 -2
BITMAP
0000166BA0
0000000B60
0000000E20
0000002D00
0000005900
0000009500
000000C200
000001D000
0000049000
0000085000
00000C2000
00001D0000
0000490000
0000860000
0000C20000
0001E00000
3658B00000
ENDCHAR
STARTCHAR asciicircum
ENCODING 94
SWIDTH 272 0
DWIDTH 7 0
BBX 5 6 1 4
BITMAP
000100
001C00
00AD20
057670
1901C0
6100A0
ENDCHAR
STARTCHAR underscore
ENCODING 95
SWIDTH 356 0
DWIDTH 9 0
BBX 9 2 -1 -1
BITMAP
0001112210
2CBA987730
ENDCHAR
STARTCHAR grave
ENCODING 96
SWIDTH 155 0
DWIDTH 4 0
BBX 4 3 0 7
BITMAP
1300
2810
0022
ENDCHAR
STARTCHAR a
ENCODING 97
SWIDTH 294 0
DWIDTH 7 0
BBX 7 6 0 0
BITMAP
002BED90
02B31A20
0B202900
2C009500
3C14A220
1D908810
ENDCHAR
STARTCHAR b
ENCODING 98
SWIDTH 247 0
DWIDTH 6 0
BBX 13 18 0 0
BITMAP
0000000018BD40
00000003710170
00000024000000
00000150000000
00000500000000
00002300000000
00007000000000
00034000000000
00080000000000
00170000000000
00730000000000
00B00000000000
0396B700000000
08A11B00000000
0B302800000000
0D006200000000
2C034000000000
1D940000000000
ENDCHAR
STARTCHAR c
ENCODING 99
SWIDTH 203 0
DWIDTH 5 0
BBX 5 7 0 0
BITMAP
001400
005180
020000
080000
2A0010
4B0420
1DC300
ENDCHAR
STARTCHAR d
ENCODING 100
SWIDTH 285 0
DWIDTH 7 0
BBX 16 18 0 0
BITMAP
0000000000004BE3
0000000000055032
0000000000420000
0000000002300000
0000000005000000
0000000041000000
0000000150000000
0000000610000000
0000001600000000
0000006200000000
0000009000000000
0000036000000000
00334C2000000000
03600C0000000000
0A00690000000000
2B01C60000000000
4A06A43000000000
1D918A1000000000
ENDCHAR
STARTCHAR e
ENCODING 101
SWIDTH 206 0
DWIDTH 5 0
BBX 5 6 0 0
BITMAP
0038A0
0413A0
0A5400
2A0000
4B0120
1CA600
ENDCHAR
STARTCHAR f
ENCODING 102
SWIDTH 156 0
DWIDTH 4 0
BBX 20 24 -7 -6
BITMAP
00000000000000018CD3
00000000000000261037
00000000000001600001
00000000000007000000
00000000000044000000
00000000000090000000
00000000000550000000
00000000000B00000000
00000000003900000000
00000000009300000000
0000000000C000000000
00000000058000000000
00000002DFEC90000000
000000000B2000000000
000000002B0000000000
00000000760000000000
00000000B10000000000
00000003800000000000
00000009200000000000
00000028000000000000
00000081000000000000
00000430000000000000
60004300000000000000
99762000000000000000
ENDCHAR
STARTCHAR g
ENCODING 103
SWIDTH 210 0
DWIDTH 5 0
BBX 9 12 -3 -6
BITMAP
000005BD40
0000503800
0001804700
0002B1A200
0000DC8000
0000063000
0000075000
172001C000
9400009400
A700008500
4E7214C100
04BEEA2000
ENDCHAR
STARTCHAR h
ENCODING 104
SWIDTH 292 0
DWIDTH 7 0
BBX 14 18 0 0
BITMAP
00000000039BC1
00000000540063
00000004200010
00000033000000
00000160000000
00000610000000
00002500000000
00008000000000
00027000000000
00081000000000
00190000000000
00550000000000
00A04B80000000
01A31A40000000
06811C00000000
0B505700000000
1D008520000000
47007A20000000
ENDCHAR
STARTCHAR i
ENCODING 105
SWIDTH 149 0
DWIDTH 4 0
BBX 5 10 0 0
BITMAP
000020
000250
000700
000000
018300
049000
074000
0B0000
1B1100
2D5000
ENDCHAR
STARTCHAR j
ENCODING 106
SWIDTH 136 0
DWIDTH 3 0
BBX 13 16 -8 -6
BITMAP
00000000000020
00000000000330
00000000000600
00000000000000
0000000001A000
0000000006A000
00000000066000
000000000A1000
000000001A0000
00000000650000
00000000900000
00000004500000
00000007000000
01000051000000
23000520000000
0A965000000000
ENDCHAR
STARTCHAR k
ENCODING 107
SWIDTH 259 0
DWIDTH 6 0
BBX 14 18 0 0
BITMAP
00000000049BB0
00000000630081
00000006100010
00000051000000
00000330000000
00000600000000
00006100000000
00017000000000
00061000000000
00090000000000
00550000000000
00900000000000
01A47B00000000
05911B00000000
09766100000000
0C390000000000
1B0C1000000000
4705B510000000
ENDCHAR
STARTCHAR l
ENCODING 108
SWIDTH 134 0
DWIDTH 3 0
BBX 12 18 0 0
BITMAP
000000002BE4
000000039335
000000270000
000000800000
000006100000
000016000000
000070000000
000260000000
000810000000
001900000000
007300000000
00B000000000
039000000000
085000000000
0C1000000000
1D0000000000
4B0000000000
2A1100000000
ENDCHAR
STARTCHAR m
ENCODING 109
SWIDTH 413 0
DWIDTH 10 0
BBX 10 6 0 0
BITMAP
03C15C03A5
02C40C3094
04B01D20D1
09406903A0
0B00B20760
4701A00662
ENDCHAR
STARTCHAR n
ENCODING 110
SWIDTH 291 0
DWIDTH 7 0
BBX 7 6 0 0
BITMAP
01C04A70
02C31A40
06A11B00
0A506700
1C008420
56007B20
ENDCHAR
STARTCHAR o
ENCODING 111
SWIDTH 225 0
DWIDTH 5 0
BBX 6 6 0 0
BITMAP
005EC0
0461D2
0800A1
380080
4A1720
1DD300
ENDCHAR
STARTCHAR p
ENCODING 112
SWIDTH 261 0
DWIDTH 6 0
BBX 7 13 -1 -6
BITMAP
00086000
004A12A0
000710D0
003300D0
00600580
01915B10
07EE9100
0A000000
19000000
56000000
83000000
B1000000
B6200000
ENDCHAR
STARTCHAR q
ENCODING 113
SWIDTH 269 0
DWIDTH 6 0
BBX 7 12 0 -6
BITMAP
00144970
02600A30
0A003900
4901C200
6817B000
3D675000
000C1000
002B0000
00670000
00A40000
00D10000
00D61000
ENDCHAR
STARTCHAR r
ENCODING 114
SWIDTH 195 0
DWIDTH 5 0
BBX 6 6 0 0
BITMAP
06C3D8
11C613
02D000
067000
0B1000
1A0000
ENDCHAR
STARTCHAR s
ENCODING 115
SWIDTH 188 0
DWIDTH 5 0
BBX 6 6 -1 0
BITMAP
001955
005802
001D10
000680
0602A0
195730
ENDCHAR
STARTCHAR t
ENCODING 116
SWIDTH 171 0
DWIDTH 4 0
BBX 4 9 1 0
BITMAP
0057
00B0
0660
5EEB
3D00
8700
C200
D030
B930
ENDCHAR
STARTCHAR u
ENCODING 117
SWIDTH 299 0
DWIDTH 7 0
BBX 7 6 0 0
BITMAP
01830390
06900A20
09203B00
0C017800
3C046720
1D603C30
ENDCHAR
STARTCHAR v
ENCODING 118
SWIDTH 271 0
DWIDTH 7 0
BBX 7 6 0 0
BITMAP
06E00540
10B00950
01903D10
0453D500
099E5000
0D920000
ENDCHAR
STARTCHAR w
ENCODING 119
SWIDTH 369 0
DWIDTH 9 0
BBX 9 6 0 0
BITMAP
2A60131B50
03A0730180
02B2C00160
02A4B00310
03B0B01300
0640A94000
ENDCHAR
STARTCHAR x
ENCODING 120
SWIDTH 263 0
DWIDTH 6 0
BBX 8 6 -1 0
BITMAP
002C04D6
002A4715
00088000
00076000
0334B011
2C505B50
ENDCHAR
STARTCHAR y
ENCODING 121
SWIDTH 280 0
DWIDTH 7 0
BBX 12 12 -5 -6
BITMAP
000000182029
000000590095
0000008302E1
000000C00790
000001C05840
000001D50C00
000000004700
00000000A100
060000037000
380000080000
1C0000610000
05A865100000
ENDCHAR
STARTCHAR z
ENCODING 122
SWIDTH 238 0
DWIDTH 6 0
BBX 7 6 -1 0
BITMAP
003ABB70
00201600
00026000
00260000
02700320
19ABB500
ENDCHAR
STARTCHAR braceleft
ENCODING 123
SWIDTH 291 0
DWIDTH 7 0
BBX 8 18 2 -3
BITMAP
00004651
00048000
000B1000
001C0000
002B0000
00590000
00750000
01900000
5C100000
0A600000
07600000
0B200000
3B000000
85000000
D1000000
E1000000
88200000
02400000
ENDCHAR
STARTCHAR bar
ENCODING 124
SWIDTH 162 0
DWIDTH 4 0
BBX 2 21 1 -6
BITMAP
17
17
17
17
17
17
17
17
17
17
17
17
17
17
17
17
17
17
17
17
17
ENDCHAR
STARTCHAR braceright
ENCODING 125
SWIDTH 285 0
DWIDTH 7 0
BBX 8 18 0 -3
BITMAP
00004860
000000D2
000000C2
000000D0
00000590
00000B20
00001C00
00003B00
00000C80
00003810
0000B000
00049000
00067000
00085000
000B2000
001B0000
14920000
42000000
ENDCHAR
STARTCHAR asciitilde
ENCODING 126
SWIDTH 383 0
DWIDTH 9 0
BBX 8 2 1 3
BITMAP
08EB4144
5317DE60
ENDCHAR
STARTCHAR space.dup1
ENCODING 160
SWIDTH 150 0
DWIDTH 4 0
BBX 1 1 0 0
BITMAP
00
ENDCHAR
STARTCHAR exclamdown
ENCODING 161
SWIDTH 189 0
DWIDTH 5 0
BBX 7 13 -2 -7
BITMAP
00000A30
00000000
00001000
00007000
00025000
00080000
00180000
00830000
01B00000
07700000
0D200000
6C000000
82000000
ENDCHAR
STARTCHAR cent
ENCODING 162
SWIDTH 194 0
DWIDTH 5 0
BBX 5 12 0 -2
BITMAP
000040
000060
0039C0
0419A0
164700
65A200
85B000
8B6000
3E2200
050000
510000
600000
ENDCHAR
STARTCHAR sterling
ENCODING 163
SWIDTH 344 0
DWIDTH 8 0
BBX 8 8 0 0
BITMAP
000005CB
00004309
00009000
00169420
005B2000
00090000
28A91002
956AEC81
ENDCHAR
STARTCHAR currency
ENCODING 164
SWIDTH 344 0
DWIDTH 8 0
BBX 9 8 0 0
BITMAP
0060000310
0040001000
0081027000
0350008000
0520007000
0350033000
06B98B0000
4500044000
ENDCHAR
STARTCHAR yen
ENCODING 165
SWIDTH 309 0
DWIDTH 7 0
BBX 8 8 0 0
BITMAP
07C10378
00752100
00371000
003EF600
09D80000
00660000
2CEFF000
00B20000
ENDCHAR
STARTCHAR brokenbar
ENCODING 166
SWIDTH 162 0
DWIDTH 4 0
BBX 2 21 1 -6
BITMAP
17
17
17
17
17
17
17
16
00
00
00
00
00
17
17
17
17
17
17
17
17
ENDCHAR
STARTCHAR section
ENCODING 167
SWIDTH 395 0
DWIDTH 9 0
BBX 14 19 -2 -6
BITMAP
00000000035510
00000003A857D2
00000046500075
00000198100061
0000056A200010
00000859300000
00000867500000
00000774900000
000005A1D00000
000002D0D10000
000000D1A50000
000000A5770000
00000068680000
0000003A490000
0420002B570000
1A00001A820000
3D000037800000
0D9101A7100000
019CA940000000
ENDCHAR
STARTCHAR dieresis
ENCODING 168
SWIDTH 174 0
DWIDTH 4 0
BBX 4 2 0 8
BITMAP
1414
6667
ENDCHAR
STARTCHAR copyright
ENCODING 169
SWIDTH 331 0
DWIDTH 8 0
BBX 7 7 1 2
BITMAP
006BA400
08512B20
44458350
72500330
51842300
15111100
00100000
ENDCHAR
STARTCHAR ordfeminine
ENCODING 170
SWIDTH 226 0
DWIDTH 5 0
BBX 4 4 1 4
BITMAP
1AD6
7431
7562
0200
ENDCHAR
STARTCHAR guillemotleft
ENCODING 171
SWIDTH 289 0
DWIDTH 7 0
BBX 8 6 0 0
BITMAP
000352E2
00646D10
0729A000
5B2F7000
07B4F500
00A37F00
ENDCHAR
STARTCHAR logicalnot
ENCODING 172
SWIDTH 265 0
DWIDTH 6 0
BBX 6 5 0 2
BITMAP
001111
8EEDDB
000067
0000B1
000040
ENDCHAR
STARTCHAR registered
ENCODING 174
SWIDTH 331 0
DWIDTH 8 0
BBX 7 6 1 3
BITMAP
0189A600
08462820
52517250
70670420
63473400
06433000
ENDCHAR
STARTCHAR degree
ENCODING 176
SWIDTH 104 0
DWIDTH 3 0
BBX 3 3 2 7
BITMAP
9D00
7520
7500
ENDCHAR
STARTCHAR plusminus
ENCODING 177
SWIDTH 301 0
DWIDTH 7 0
BBX 7 7 0 0
BITMAP
00003000
00009000
00036000
08FFFF60
00090000
00170000
58888200
ENDCHAR
STARTCHAR twosuperior
ENCODING 178
SWIDTH 215 0
DWIDTH 5 0
BBX 4 4 1 4
BITMAP
0486
0135
0250
4A72
ENDCHAR
STARTCHAR threesuperior
ENCODING 179
SWIDTH 190 0
DWIDTH 5 0
BBX 3 4 1 4
BITMAP
0480
0470
0190
6540
ENDCHAR
STARTCHAR acute
ENCODING 180
SWIDTH 157 0
DWIDTH 4 0
BBX 4 3 0 7
BITMAP
01D2
0790
1500
ENDCHAR
STARTCHAR mu
ENCODING 181
SWIDTH 324 0
DWIDTH 8 0
BBX 9 10 -1 -4
BITMAP
0001900840
0008402B00
002B00A600
008704B200
01C753C110
058D309910
0A10000000
0C00000000
4A00000000
4300000000
ENDCHAR
STARTCHAR paragraph
ENCODING 182
SWIDTH 392 0
DWIDTH 9 0
BBX 14 14 -3 -6
BITMAP
0000000027BD71
00000009FC1C00
000000BFF83900
000006FFF47500
00000AFFE0B100
00000BFFA1B000
000006FF657000
0000006E2A2000
0000000A1B0000
00000047760000
06000082B00000
2A000279300000
2D001894000000
07B8A710000000
ENDCHAR
STARTCHAR periodcentered
ENCODING 183
SWIDTH 112 0
DWIDTH 3 0
BBX 2 1 0 3
BITMAP
2B
ENDCHAR
STARTCHAR cedilla
ENCODING 184
SWIDTH 115 0
DWIDTH 3 0
BBX 3 3 0 -3
BITMAP
0610
0700
2400
ENDCHAR
STARTCHAR onesuperior
ENCODING 185
SWIDTH 174 0
DWIDTH 4 0
BBX 3 4 1 4
BITMAP
6E50
0700
3500
8000
ENDCHAR
STARTCHAR ordmasculine
ENCODING 186
SWIDTH 178 0
DWIDTH 4 0
BBX 3 4 1 4
BITMAP
2C80
8150
6400
1300
ENDCHAR
STARTCHAR guillemotright
ENCODING 187
SWIDTH 276 0
DWIDTH 7 0
BBX 8 6 -1 0
BITMAP
00D18600
006B2D20
000883D1
00271640
03617200
35070000
ENDCHAR
STARTCHAR onequarter
ENCODING 188
SWIDTH 435 0
DWIDTH 10 0
BBX 9 10 1 -1
BITMAP
0000000110
0376000810
0091008100
0370072000
0910540060
1A04503830
1126022A00
01703DF800
0810009000
7200000000
ENDCHAR
STARTCHAR onehalf
ENCODING 189
SWIDTH 434 0
DWIDTH 10 0
BBX 9 10 1 -1
BITMAP
0000000110
0377000810
0091008100
0270072000
09105458A0
1A045130A0
1126000540
0170015200
08104A9720
6200000000
ENDCHAR
STARTCHAR threequarters
ENCODING 190
SWIDTH 476 0
DWIDTH 11 0
BBX 10 10 1 -1
BITMAP
0000000011
0000000081
0368000810
0027007201
0378063038
0009450491
6454605280
0017036A60
0080000900
0720000000
ENDCHAR
STARTCHAR questiondown
ENCODING 191
SWIDTH 285 0
DWIDTH 7 0
BBX 9 13 -2 -7
BITMAP
0000000670
0000000000
000001C300
0000009300
0000036000
0001640000
0039100000
0390000000
0B10000000
2B00000000
2D00061000
0DA5740000
0177200000
ENDCHAR
STARTCHAR Agrave
ENCODING 192
SWIDTH 996 0
DWIDTH 24 0
BBX 24 18 1 0
BITMAP
000000000000000000019200
000000000000000000003850
000000000000000000000000
000000000000389AABB95100
000000000004400000158DC1
000000000022000000003A70
000000000040000000053B00
00000000003000000150A300
00000000000000001601B000
000000000000000270066000
0000000000000027000B2000
000000000009FFFFEEED0000
0200000000000640000B0000
5200000000006300003A0000
900000000017200000490000
B300000005700000005A0010
7E51002793000000003E3340
07DFDC8300000000000AE600
ENDCHAR
STARTCHAR Aacute
ENCODING 193
SWIDTH 996 0
DWIDTH 24 0
BBX 24 19 1 0
BITMAP
000000000000000000000011
0000000000000000000002D6
000000000000000000002820
000000000000000000000000
000000000000389AABB95100
000000000004400000158DC1
000000000022000000003A70
000000000040000000053B00
00000000003000000150A300
00000000000000001601B000
000000000000000270066000
0000000000000027000B2000
000000000009FFFFEEED0000
0200000000000640000B0000
5200000000006300003A0000
900000000017200000490000
B300000005700000005A0010
7E51002793000000003E3340
07DFDC8300000000000AE600
ENDCHAR
STARTCHAR Acircumflex
ENCODING 194
SWIDTH 996 0
DWIDTH 24 0
BBX 25 19 1 0
BITMAP
0000000000000000000002A100
00000000000000000000354A20
00000000000000000000000000
00000000000000000000000000
000000000000389AABB9510000
000000000004400000158DC100
000000000022000000003A7000
000000000040000000053B0000
00000000003000000150A30000
00000000000000001601B00000
00000000000000027006600000
0000000000000027000B200000
000000000009FFFFEEED000000
0200000000000640000B000000
5200000000006300003A000000
90000000001720000049000000
B300000005700000005A001000
7E51002793000000003E334000
07DFDC8300000000000AE60000
ENDCHAR
STARTCHAR Atilde
ENCODING 195
SWIDTH 996 0
DWIDTH 24 0
BBX 25 19 1 0
BITMAP
00000000000000000000000010
000000000000000000005E5040
0000000000000000000186CB40
00000000000000000000000000
000000000000389AABB9510000
000000000004400000158DC100
000000000022000000003A7000
000000000040000000053B0000
00000000003000000150A30000
00000000000000001601B00000
00000000000000027006600000
0000000000000027000B200000
000000000009FFFFEEED000000
0200000000000640000B000000
5200000000006300003A000000
90000000001720000049000000
B300000005700000005A001000
7E51002793000000003E334000
07DFDC8300000000000AE60000
ENDCHAR
STARTCHAR Adieresis
ENCODING 196
SWIDTH 996 0
DWIDTH 24 0
BBX 24 19 1 0
BITMAP
000000000000000000000112
00000000000000000000092B
000000000000000000000000
000000000000000000000000
000000000000389AABB95100
000000000004400000158DC1
000000000022000000003A70
000000000040000000053B00
00000000003000000150A300
00000000000000001601B000
000000000000000270066000
0000000000000027000B2000
000000000009FFFFEEED0000
0200000000000640000B0000
5200000000006300003A0000
900000000017200000490000
B300000005700000005A0010
7E51002793000000003E3340
07DFDC8300000000000AE600
ENDCHAR
STARTCHAR Aring
ENCODING 197
SWIDTH 996 0
DWIDTH 24 0
BBX 24 19 1 0
BITMAP
000000000000000000000092
000000000000000000000305
000000000000000000000402
000000000000000000000000
000000000000389AABB95100
000000000004400000158DC1
000000000022000000003A70
000000000040000000053B00
00000000003000000150A300
00000000000000001601B000
000000000000000270066000
0000000000000027000B2000
000000000009FFFFEEED0000
0200000000000640000B0000
5200000000006300003A0000
900000000017200000490000
B300000005700000005A0010
7E51002793000000003E3340
07DFDC8300000000000AE600
ENDCHAR
STARTCHAR AE
ENCODING 198
SWIDTH 1271 0
DWIDTH 31 0
BBX 31 15 1 0
BITMAP
000000000000389AABB8510004568A30
000000000004400000158CB1800004A0
00000000002200000000398670000140
000000000040000000051D1880000000
000000000030000001606804E5000000
00000000000000001600B3019D500000
00000000000000027001D23200000000
00000000000000270004C30000000000
000000000005FFFFFFFFA00000000000
03000000000006400008600000000000
5200000000007300000A400000000000
9000000000182000000A600000005000
B3000000057100000008A00000007000
7E610027940000000001E500001A3000
07DFDC830000000000002A9666730000
ENDCHAR
STARTCHAR Ccedilla
ENCODING 199
SWIDTH 557 0
DWIDTH 13 0
BBX 15 17 1 -2
BITMAP
00000045567AB600
0000451000002D10
0006300000000600
0065000000000000
02B0000000000000
0950000000000000
0E10000000000000
3E00000000000000
5D00000000000000
4F00000000000000
1F40000000050000
0AA0000000070000
01D7000000850000
0018A41039B00000
0000038641000000
0000008000000000
0000024000000000
ENDCHAR
STARTCHAR Egrave
ENCODING 200
SWIDTH 463 0
DWIDTH 11 0
BBX 13 18 0 0
BITMAP
00000000760000
00000000178100
00000000000000
0000003567A810
00000630000940
00001B00000400
00003E10000000
00000BC4000000
000016EE100000
00066200000000
00820000000000
07500000000000
0E000000000000
3D000000000000
4E000000005000
1F300000044000
07C100003B0000
005B8667610000
ENDCHAR
STARTCHAR Eacute
ENCODING 201
SWIDTH 463 0
DWIDTH 11 0
BBX 13 18 0 0
BITMAP
0000000002B200
00000000482000
00000000000000
0000003567A810
00000630000940
00001B00000400
00003E10000000
00000BC4000000
000016EE100000
00066200000000
00820000000000
07500000000000
0E000000000000
3D000000000000
4E000000005000
1F300000044000
07C100003B0000
005B8667610000
ENDCHAR
STARTCHAR Ecircumflex
ENCODING 202
SWIDTH 463 0
DWIDTH 11 0
BBX 13 19 0 0
BITMAP
000000002A1000
0000000353A300
00000000000000
00000000000000
0000003567A810
00000630000940
00001B00000400
00003E10000000
00000BC4000000
000016EE100000
00066200000000
00820000000000
07500000000000
0E000000000000
3D000000000000
4E000000005000
1F300000044000
07C100003B0000
005B8667610000
ENDCHAR
STARTCHAR Edieresis
ENCODING 203
SWIDTH 463 0
DWIDTH 11 0
BBX 13 19 0 0
BITMAP
00000000121100
00000000749200
00000000000000
00000000000000
0000003567A810
00000630000940
00001B00000400
00003E10000000
00000BC4000000
000016EE100000
00066200000000
00820000000000
07500000000000
0E000000000000
3D000000000000
4E000000005000
1F300000044000
07C100003B0000
005B8667610000
ENDCHAR
STARTCHAR Igrave
ENCODING 204
SWIDTH 514 0
DWIDTH 12 0
BBX 17 19 0 0
BITMAP
000000000001400000
000000000002892000
000000000000002000
000000000000000000
000000000000146D70
00000000000331B200
000000000040094000
0000000004002C0000
000000003000770000
000000004000B30000
000000031001D00000
000000050005800000
00000004100A200000
001000005029000000
0620000023A4000000
740000000650000000
B50000006600000000
6D51126A4000000000
07DFEB610000000000
ENDCHAR
STARTCHAR Iacute
ENCODING 205
SWIDTH 514 0
DWIDTH 12 0
BBX 17 19 0 0
BITMAP
000000000000007200
000000000000296000
000000000000200000
000000000000000000
000000000000146D70
00000000000331B200
000000000040094000
0000000004002C0000
000000003000770000
000000004000B30000
000000031001D00000
000000050005800000
00000004100A200000
001000005029000000
0620000023A4000000
740000000650000000
B50000006600000000
6D51126A4000000000
07DFEB610000000000
ENDCHAR
STARTCHAR Icircumflex
ENCODING 206
SWIDTH 514 0
DWIDTH 12 0
BBX 17 19 0 0
BITMAP
000000000000049000
000000000000446A10
000000000000000000
000000000000000000
000000000000146D70
00000000000331B200
000000000040094000
0000000004002C0000
000000003000770000
000000004000B30000
000000031001D00000
000000050005800000
00000004100A200000
001000005029000000
0620000023A4000000
740000000650000000
B50000006600000000
6D51126A4000000000
07DFEB610000000000
ENDCHAR
STARTCHAR Idieresis
ENCODING 207
SWIDTH 514 0
DWIDTH 12 0
BBX 17 19 0 0
BITMAP
000000000000020200
0000000000001A4700
000000000000000000
000000000000000000
000000000000146D70
00000000000331B200
000000000040094000
0000000004002C0000
000000003000770000
000000004000B30000
000000031001D00000
000000050005800000
00000004100A200000
001000005029000000
0620000023A4000000
740000000650000000
B50000006600000000
6D51126A4000000000
07DFEB610000000000
ENDCHAR
STARTCHAR Eth
ENCODING 208
SWIDTH 800 0
DWIDTH 19 0
BBX 20 16 0 0
BITMAP
00000000000000012000
000000579ACB62740000
00001610000381300000
00006000000120040000
00014000000600006000
00020000001600002700
00000000007200000920
00000000009000000580
0000000003EEF90002D0
0000003FFF51000000E0
000000000800000000D1
000000002500000000C0
00000000600000000280
00243204100000000810
051237BD830000016300
2C76540159CBB9761000
ENDCHAR
STARTCHAR Ntilde
ENCODING 209
SWIDTH 796 0
DWIDTH 19 0
BBX 30 19 -4 0
BITMAP
000000000000000000000001000000
00000000000000000007D304000000
000000000000000000277DA2000000
000000000000000000000000000000
000000006ACDA31100000000002BE7
0000000620004CC20000000002B32A
00000011000000A900000000191002
000000000000007380000000710000
000000000000006065000002500000
00000000000004200A100005000000
000000000000060002900014000000
000000000000050000920040000000
031000000000410000390040000000
0700000000005000000C1130000000
550000000005100000067400000000
66000000004300000001C400000000
3D100000054000000000B600000000
09D620259400000000006700000000
006CEEC61000000000002600000000
ENDCHAR
STARTCHAR Ograve
ENCODING 210
SWIDTH 608 0
DWIDTH 15 0
BBX 15 18 1 0
BITMAP
00000002D4000000
0000000018600000
0000000000000000
00000049DEEA2000
00002973113AE400
0003810000008D00
0017000000000D50
0090000000000890
04600000000005A0
0A10000000000590
0C00000000000670
2B00000000000920
4C00000000001A00
3E00000000007300
0E60000000037000
08E3000000480000
00BE730149600000
0007CEEC71000000
ENDCHAR
STARTCHAR Oacute
ENCODING 211
SWIDTH 608 0
DWIDTH 15 0
BBX 15 18 1 0
BITMAP
0000000003B10000
0000000057100000
0000000000000000
00000049DEEA2000
00002973113AE400
0003810000008D00
0017000000000D50
0090000000000890
04600000000005A0
0A10000000000590
0C00000000000670
2B00000000000920
4C00000000001A00
3E00000000007300
0E60000000037000
08E3000000480000
00BE730149600000
0007CEEC71000000
ENDCHAR
STARTCHAR Ocircumflex
ENCODING 212
SWIDTH 608 0
DWIDTH 15 0
BBX 15 19 1 0
BITMAP
0000000007500000
0000000162870000
0000000000000000
0000000000000000
00000049DEEA2000
00002973113AE400
0003810000008D00
0017000000000D50
0090000000000890
04600000000005A0
0A10000000000590
0C00000000000670
2B00000000000920
4C00000000001A00
3E00000000007300
0E60000000037000
08E3000000480000
00BE730149600000
0007CEEC71000000
ENDCHAR
STARTCHAR Otilde
ENCODING 213
SWIDTH 608 0
DWIDTH 15 0
BBX 15 19 1 0
BITMAP
0000000000001000
00000001C9013000
000000065AD70000
0000000000000000
00000049DEEA2000
00002973113AE400
0003810000008D00
0017000000000D50
0090000000000890
04600000000005A0
0A10000000000590
0C00000000000670
2B00000000000920
4C00000000001A00
3E00000000007300
0E60000000037000
08E3000000480000
00BE730149600000
0007CEEC71000000
ENDCHAR
STARTCHAR Odieresis
ENCODING 214
SWIDTH 608 0
DWIDTH 15 0
BBX 15 18 1 0
BITMAP
0000000002110000
0000000065930000
0000000000000000
00000049DEEA2000
00002973113AE400
0003810000008D00
0017000000000D50
0090000000000890
04600000000005A0
0A10000000000590
0C00000000000670
2B00000000000920
4C00000000001A00
3E00000000007300
0E60000000037000
08E3000000480000
00BE730149600000
0007CEEC71000000
ENDCHAR
STARTCHAR multiply
ENCODING 215
SWIDTH 301 0
DWIDTH 7 0
BBX 6 6 1 0
BITMAP
044084
009740
008600
056900
560520
100000
ENDCHAR
STARTCHAR Oslash
ENCODING 216
SWIDTH 605 0
DWIDTH 15 0
BBX 15 17 1 -1
BITMAP
0000000000006100
0000004ADFFFB000
00002A721144B900
0004910000301E20
0029000002100A60
00A1000012000780
0470000030000680
0B20000310000670
1D00001200000840
3B00003000000B00
4B00030000002800
3C00210000009100
1E11200000055000
0971000000660000
01DE820149400000
0537DFEB61000000
0300000000000000
ENDCHAR
STARTCHAR Ugrave
ENCODING 217
SWIDTH 717 0
DWIDTH 17 0
BBX 20 18 0 0
BITMAP
00000000000036000000
00000000000017920000
00000000000000010000
000169BCDA50000001C3
00271000083000000780
01500000520000000D10
05000004300000006800
0500002700000000D200
1400009100000007A000
130004700000001E4000
03000A100000006D0000
00001B00000002990000
00005900000006A50000
00007700000061D10000
00009700000431D00000
00009900005403C00200
00006E41384003E25200
00000AED920000CD3000
ENDCHAR
STARTCHAR Uacute
ENCODING 218
SWIDTH 717 0
DWIDTH 17 0
BBX 20 18 0 0
BITMAP
00000000000000073000
00000000000002960000
00000000000001000000
000169BCDA50000001C3
00271000083000000780
01500000520000000D10
05000004300000006800
0500002700000000D200
1400009100000007A000
130004700000001E4000
03000A100000006D0000
00001B00000002990000
00005900000006A50000
00007700000061D10000
00009700000431D00000
00009900005403C00200
00006E41384003E25200
00000AED920000CD3000
ENDCHAR
STARTCHAR Ucircumflex
ENCODING 219
SWIDTH 718 0
DWIDTH 17 0
BBX 20 18 0 0
BITMAP
00000000000002C30000
000000000000352A4000
00000000000000000000
000169BCDA50000001C3
00271000083000000780
01500000520000000D10
05000004300000006800
0500002700000000D200
1400009100000007A000
130004700000001E4000
03000A100000006D0000
00001B00000002990000
00005900000006A50000
00007700000061D10000
00009700000431D00000
00009900005403C00200
00006E41384003E25200
00000AED920000CD3000
ENDCHAR
STARTCHAR Udieresis
ENCODING 220
SWIDTH 718 0
DWIDTH 17 0
BBX 20 19 0 0
BITMAP
00000000000002020000
0000000000000B1A0000
00000000000000000000
00000000000000000000
000169BCDA50000001C3
00271000083000000780
01500000520000000D10
05000004300000006800
0500002700000000D200
1400009100000007A000
130004700000001E4000
03000A100000006D0000
00001B00000002990000
00005900000006A50000
00007700000061D10000
00009700000431D00000
00009900005403C00200
00006E41384003E25200
00000AED920000CD3000
ENDCHAR
STARTCHAR Yacute
ENCODING 221
SWIDTH 662 0
DWIDTH 16 0
BBX 21 21 0 -3
BITMAP
0000000000000001C50000
000000000000000B800000
0000000000000064000000
0000000049D200000003A0
0000000430B40000000B50
0000000100C20000004C00
0000000001D0000000C500
000000000680000006C000
000000000A3000001E4000
000000001C000000AB0000
0000000049000005E20000
0001520085000049800000
00651000B300045B100000
08100000B7128584000000
560000005EE92380000000
A300000000001900000000
C200000000008200000000
B500000000083000000000
6C00000002920000000000
0BC4101499100000000000
007DFDB720000000000000
ENDCHAR
STARTCHAR Thorn
ENCODING 222
SWIDTH 745 0
DWIDTH 18 0
BBX 18 17 1 0
BITMAP
000000000000000240
000000000000004500
000000000000038000
0000000000000B1000
000000000047AFD810
000000000620A64CC1
000000005100E100D8
000000003004C0006C
00000000000970004C
00000000000D200059
04000000003B0000A3
420000000293000650
7000000002B4345200
900000000810000000
930000005400000000
2D4000164000000000
03BDBA710000000000
ENDCHAR
STARTCHAR germandbls
ENCODING 223
SWIDTH 304 0
DWIDTH 7 0
BBX 21 24 -8 -6
BITMAP
0000000000000000001100
0000000000000002310860
00000000000000120003C0
00000000000000100005B0
0000000000000100000B60
0000000000003000008B00
000000000000500009B100
0000000000052002C80000
000000000007006D400000
00000000002609B1000000
0000000000726B00000000
0000000000A0B300000000
000000000190B000000000
0000000006505400000000
000000000A100900000000
000000000A000650000000
0000000046161970000000
00000000812DFB10000000
0000000170000000000000
0000000620000000000000
0000000500000000000000
0000005000000000000000
5000041000000000000000
5B98500000000000000000
ENDCHAR
STARTCHAR agrave
ENCODING 224
SWIDTH 294 0
DWIDTH 7 0
BBX 7 10 0 0
BITMAP
00004000
00006400
00000040
00000000
002BED90
02B31A20
0B202900
2C009500
3C14A220
1D908810
ENDCHAR
STARTCHAR aacute
ENCODING 225
SWIDTH 294 0
DWIDTH 7 0
BBX 7 10 0 0
BITMAP
000005B0
00000C50
00004300
00000000
002BED90
02B31A20
0B202900
2C009500
3C14A220
1D908810
ENDCHAR
STARTCHAR acircumflex
ENCODING 226
SWIDTH 294 0
DWIDTH 7 0
BBX 7 10 0 0
BITMAP
00003900
00034580
00000000
00000000
002BED90
02B31A20
0B202900
2C009500
3C14A220
1D908810
ENDCHAR
STARTCHAR atilde
ENCODING 227
SWIDTH 294 0
DWIDTH 7 0
BBX 8 9 0 0
BITMAP
0006C251
00157E60
00000000
002BED90
02B31A20
0B202900
2C009500
3C14A220
1D908810
ENDCHAR
STARTCHAR adieresis
ENCODING 228
SWIDTH 284 0
DWIDTH 7 0
BBX 7 10 0 0
BITMAP
00014040
00067570
00000000
00000000
002BED90
02B31A20
0B202900
2C009500
3C14A220
1D908810
ENDCHAR
STARTCHAR aring
ENCODING 229
SWIDTH 294 0
DWIDTH 7 0
BBX 7 10 0 0
BITMAP
00006C00
00006600
00009700
00000000
002BED90
02B31A20
0B202900
2C009500
3C14A220
1D908810
ENDCHAR
STARTCHAR ae
ENCODING 230
SWIDTH 363 0
DWIDTH 9 0
BBX 9 7 0 0
BITMAP
0000006000
00236C7B70
03301C0670
09006B5300
2A01A60000
3A16770210
1D803D9400
ENDCHAR
STARTCHAR ccedilla
ENCODING 231
SWIDTH 203 0
DWIDTH 5 0
BBX 5 10 0 -3
BITMAP
001400
005180
020000
070000
290010
4B0420
1DC300
025000
035000
061000
ENDCHAR
STARTCHAR egrave
ENCODING 232
SWIDTH 206 0
DWIDTH 5 0
BBX 6 10 0 0
BITMAP
000400
001630
000004
000000
0038A0
0413A0
0A5400
2A0000
4B0120
1CA600
ENDCHAR
STARTCHAR eacute
ENCODING 233
SWIDTH 206 0
DWIDTH 5 0
BBX 6 10 0 0
BITMAP
00005B
0000C4
000430
000000
0038A0
0413A0
0A5400
2A0000
4B0120
1CA600
ENDCHAR
STARTCHAR ecircumflex
ENCODING 234
SWIDTH 206 0
DWIDTH 5 0
BBX 6 10 0 0
BITMAP
000750
005385
000000
000000
0038A0
0413A0
0A5400
2A0000
4B0120
1CA600
ENDCHAR
STARTCHAR edieresis
ENCODING 235
SWIDTH 206 0
DWIDTH 5 0
BBX 6 10 0 0
BITMAP
000404
004849
000000
000000
0038A0
0413A0
0A5400
2A0000
4B0120
1CA600
ENDCHAR
STARTCHAR igrave
ENCODING 236
SWIDTH 149 0
DWIDTH 4 0
BBX 5 10 0 0
BITMAP
004000
006400
000040
000000
018300
049000
074000
0B0000
1B1100
2D5000
ENDCHAR
STARTCHAR iacute
ENCODING 237
SWIDTH 149 0
DWIDTH 4 0
BBX 6 10 0 0
BITMAP
0001D3
0006A0
001600
000000
018300
049000
074000
0B0000
1B1100
2D5000
ENDCHAR
STARTCHAR icircumflex
ENCODING 238
SWIDTH 149 0
DWIDTH 4 0
BBX 5 10 0 0
BITMAP
003900
034590
000000
000000
018300
049000
074000
0B0000
1B1100
2D5000
ENDCHAR
STARTCHAR idieresis
ENCODING 239
SWIDTH 149 0
DWIDTH 4 0
BBX 6 10 0 0
BITMAP
003232
00B2B2
000000
000000
018300
049000
074000
0B0000
1B1100
2D5000
ENDCHAR
STARTCHAR eth
ENCODING 240
SWIDTH 234 0
DWIDTH 6 0
BBX 6 16 0 0
BITMAP
041000
090000
0C1000
078000
00B640
017B00
060750
0001A0
0000A0
000073
002275
042045
090062
1A0070
3C0530
0CB400
ENDCHAR
STARTCHAR ntilde
ENCODING 241
SWIDTH 291 0
DWIDTH 7 0
BBX 8 9 0 0
BITMAP
0006C251
00157E60
00000000
01C04A70
02C31A40
06A11B00
0A506700
1C008420
56007B20
ENDCHAR
STARTCHAR ograve
ENCODING 242
SWIDTH 225 0
DWIDTH 5 0
BBX 6 10 0 0
BITMAP
000210
000471
000004
000000
005EC0
0461D2
0800A1
380080
4A1720
1DD300
ENDCHAR
STARTCHAR oacute
ENCODING 243
SWIDTH 225 0
DWIDTH 5 0
BBX 6 10 0 0
BITMAP
00003D
0000A6
000340
000000
005EC0
0461D2
0800A1
380080
4A1720
1DD300
ENDCHAR
STARTCHAR ocircumflex
ENCODING 244
SWIDTH 225 0
DWIDTH 5 0
BBX 7 10 0 0
BITMAP
00019200
00153920
00000000
00000000
005EC000
0461D200
0800A100
38008000
4A172000
1DD30000
ENDCHAR
STARTCHAR otilde
ENCODING 245
SWIDTH 225 0
DWIDTH 5 0
BBX 7 9 0 0
BITMAP
002D5240
0063DB00
00000000
005EC000
0461D200
0800A100
38008000
4A172000
1DD30000
ENDCHAR
STARTCHAR odieresis
ENCODING 246
SWIDTH 225 0
DWIDTH 5 0
BBX 6 10 0 0
BITMAP
000404
004849
000000
000000
005EC0
0461D2
0800A1
380080
4A1720
1DD300
ENDCHAR
STARTCHAR divide
ENCODING 247
SWIDTH 301 0
DWIDTH 7 0
BBX 6 5 1 1
BITMAP
000800
000000
488883
000000
008000
ENDCHAR
STARTCHAR oslash
ENCODING 248
SWIDTH 225 0
DWIDTH 5 0
BBX 6 8 0 -1
BITMAP
000005
0049D1
0424D2
0824A1
386080
4C1520
4DA300
300000
ENDCHAR
STARTCHAR ugrave
ENCODING 249
SWIDTH 299 0
DWIDTH 7 0
BBX 7 10 0 0
BITMAP
00003100
00005610
00000040
00000000
01830390
06900A20
09203B00
0C017800
3C046720
1D603C30
ENDCHAR
STARTCHAR uacute
ENCODING 250
SWIDTH 299 0
DWIDTH 7 0
BBX 8 10 0 0
BITMAP
000002D1
00000970
00002500
00000000
01830390
06900A20
09203B00
0C017800
3C046720
1D603C30
ENDCHAR
STARTCHAR ucircumflex
ENCODING 251
SWIDTH 299 0
DWIDTH 7 0
BBX 7 10 0 0
BITMAP
00003900
00034590
00000000
00000000
01830390
06900A20
09203B00
0C017800
3C046720
1D603C30
ENDCHAR
STARTCHAR udieresis
ENCODING 252
SWIDTH 299 0
DWIDTH 7 0
BBX 7 10 0 0
BITMAP
00004040
00048490
00000000
00000000
01830390
06900A20
09203B00
0C017800
3C046720
1D603C30
ENDCHAR
STARTCHAR yacute
ENCODING 253
SWIDTH 280 0
DWIDTH 7 0
BBX 13 16 -5 -6
BITMAP
00000000001D30
00000000007900
00000000015000
00000000000000
00000018202900
00000059009500
0000008302E100
000000C0079000
000001C0584000
000001D50C0000
00000000470000
00000000A10000
06000003700000
38000008000000
1C000061000000
05A86510000000
ENDCHAR
STARTCHAR thorn
ENCODING 254
SWIDTH 261 0
DWIDTH 6 0
BBX 7 18 -1 -6
BITMAP
00000440
00003940
00000A00
00004600
00009100
00028000
000802A0
000810D0
004300D0
00700580
01915B10
07EE9100
09000000
09000000
46000000
83000000
B1000000
B6200000
ENDCHAR
STARTCHAR ydieresis
ENCODING 255
SWIDTH 280 0
DWIDTH 7 0
BBX 12 16 -5 -6
BITMAP
000000000404
000000005858
000000000000
000000000000
000000182029
000000590095
0000008302E1
000000C00790
000001C05840
000001D50C00
000000004700
00000000A100
060000037000
380000080000
1C0000610000
05A865100000
ENDCHAR
STARTCHAR dotlessi
ENCODING 305
SWIDTH 149 0
DWIDTH 4 0
BBX 4 6 0 0
BITMAP
0183
0490
0740
0B00
1B11
2D50
ENDCHAR
STARTCHAR Lslash
ENCODING 321
SWIDTH 657 0
DWIDTH 16 0
BBX 18 15 0 0
BITMAP
00000000000004BEC1
0000000000005412B5
000000000004100044
000000000023000030
000000000060000000
000000000274620000
0000000007C4000000
000000266D00000000
000000202A00000000
000000006500000000
00000000A000000000
000000037000000000
023013270000001300
2B2027EEA520137000
1CFEC7249CEFD70000
ENDCHAR
STARTCHAR lslash
ENCODING 322
SWIDTH 134 0
DWIDTH 3 0
BBX 12 18 0 0
BITMAP
000000002BE4
000000049225
000000260000
000000700000
000006100000
000025000000
000070000000
000594100000
015910000000
001800000000
008300000000
00B000000000
038000000000
084000000000
0C1000000000
1D0000000000
3B0000000000
2A1100000000
ENDCHAR
STARTCHAR OE
ENCODING 338
SWIDTH 827 0
DWIDTH 20 0
BBX 20 15 1 0
BITMAP
0000004ADFEA204567A6
00002972114BE910001C
00037000000098000004
0027000000007A000000
0090000000002E930000
05500000000028FB0000
0B100000001752000000
1C000000029000000000
3B0000000B1000000000
4B0000004B0000000000
4E0000007A0000000000
1F5000007B0000000140
09E200003E1000000710
01CE72014DA000006800
0017DFEC617A75675000
ENDCHAR
STARTCHAR oe
ENCODING 339
SWIDTH 345 0
DWIDTH 8 0
BBX 9 6 0 0
BITMAP
004AA26D20
0420B50B20
0700B65100
3800D00000
4905E10300
1CA38C8100
ENDCHAR
STARTCHAR Scaron
ENCODING 352
SWIDTH 480 0
DWIDTH 12 0
BBX 12 18 1 0
BITMAP
000000029133
000000003C40
000000000000
000000013691
000000400038
000003600034
000005900010
000002F20000
000000AB0000
0000002E6000
00000005E100
00000000A800
020000003E00
360000000D00
A20000000B00
B50000001700
5D3000016000
04BA97640000
ENDCHAR
STARTCHAR scaron
ENCODING 353
SWIDTH 188 0
DWIDTH 5 0
BBX 7 10 -1 0
BITMAP
00072110
00002400
00000000
00000000
00195500
00580200
001D1000
00068000
0602A000
19573000
ENDCHAR
STARTCHAR Ydieresis
ENCODING 376
SWIDTH 662 0
DWIDTH 16 0
BBX 21 22 0 -3
BITMAP
0000000000000020200000
00000000000000B2900000
0000000000000000000000
0000000000000000000000
0000000049D200000003A0
0000000430B40000000B50
0000000100C20000004C00
0000000001D0000000C500
000000000680000006C000
000000000A3000001E4000
000000001C000000AB0000
0000000049000005E20000
0001520085000049800000
00651000B300045B100000
08100000B7128584000000
560000005EE92380000000
A300000000001900000000
C200000000008200000000
B500000000083000000000
6C00000002920000000000
0BC4101499100000000000
007DFDB720000000000000
ENDCHAR
STARTCHAR Zcaron
ENCODING 381
SWIDTH 625 0
DWIDTH 15 0
BBX 16 18 1 0
BITMAP
0000000001922400
00000000002C5000
0000000000000005
00000019DFFFFFF5
0000009410000340
0000042000004400
0000050000043000
0000010000430000
0000000004300000
0000000043000000
0000000530000000
0000005300000000
0000053000000000
0000620000000100
0006200000000600
0062000000006100
09DDA63101394000
73026ADFED920000
ENDCHAR
STARTCHAR zcaron
ENCODING 382
SWIDTH 248 0
DWIDTH 6 0
BBX 8 10 -1 0
BITMAP
00018011
00000020
00000000
00000000
004ABB70
00201600
00025000
00250000
02600320
19ABA500
ENDCHAR
STARTCHAR florin
ENCODING 402
SWIDTH 214 0
DWIDTH 5 0
BBX 8 10 -2 -2
BITMAP
000003CD
00001917
00008200
0000B000
002DFDA0
00157000
00082000
00090000
00520000
97300000
ENDCHAR
STARTCHAR circumflex
ENCODING 710
SWIDTH 196 0
DWIDTH 5 0
BBX 5 2 0 8
BITMAP
029100
254910
ENDCHAR
STARTCHAR caron
ENCODING 711
SWIDTH 196 0
DWIDTH 5 0
BBX 5 2 0 8
BITMAP
370010
013100
ENDCHAR
STARTCHAR breve
ENCODING 728
SWIDTH 198 0
DWIDTH 5 0
BBX 5 2 0 8
BITMAP
620110
007300
ENDCHAR
STARTCHAR dotaccent
ENCODING 729
SWIDTH 89 0
DWIDTH 2 0
BBX 2 1 0 8
BITMAP
56
ENDCHAR
STARTCHAR ring
ENCODING 730
SWIDTH 117 0
DWIDTH 3 0
BBX 3 3 0 7
BITMAP
2E30
6340
5A00
ENDCHAR
STARTCHAR ogonek
ENCODING 731
SWIDTH 124 0
DWIDTH 3 0
BBX 3 3 0 -3
BITMAP
0610
6200
4720
ENDCHAR
STARTCHAR tilde
ENCODING 732
SWIDTH 222 0
DWIDTH 5 0
BBX 5 2 0 7
BITMAP
0B8160
43BD20
ENDCHAR
STARTCHAR hungarumlaut
ENCODING 733
SWIDTH 253 0
DWIDTH 6 0
BBX 6 3 0 7
BITMAP
02D2B6
0A95C1
461810
ENDCHAR
STARTCHAR mu.dup2
ENCODING 956
SWIDTH 324 0
DWIDTH 8 0
BBX 9 10 -1 -4
BITMAP
0001900840
0008402B00
002B00A600
008704B200
01C753C110
058D309910
0A10000000
0C00000000
4A00000000
4300000000
ENDCHAR
STARTCHAR endash
ENCODING 8211
SWIDTH 500 0
DWIDTH 12 0
BBX 12 1 0 3
BITMAP
7FEEEEEFFFF5
ENDCHAR
STARTCHAR emdash
ENCODING 8212
SWIDTH 1000 0
DWIDTH 24 0
BBX 24 1 0 3
BITMAP
7FFEEEEEEEEEEEEEEEFFFFF5
ENDCHAR
STARTCHAR quoteleft
ENCODING 8216
SWIDTH 87 0
DWIDTH 2 0
BBX 3 4 1 6
BITMAP
0420
3500
9400
6200
ENDCHAR
STARTCHAR quoteright
ENCODING 8217
SWIDTH 87 0
DWIDTH 2 0
BBX 3 4 1 6
BITMAP
0830
0920
0700
4000
ENDCHAR
STARTCHAR quotesinglbase
ENCODING 8218
SWIDTH 112 0
DWIDTH 3 0
BBX 2 4 0 -2
BITMAP
08
0E
06
30
ENDCHAR
STARTCHAR quotedblleft
ENCODING 8220
SWIDTH 167 0
DWIDTH 4 0
BBX 5 4 1 6
BITMAP
042520
253400
93A200
839200
ENDCHAR
STARTCHAR quotedblright
ENCODING 8221
SWIDTH 167 0
DWIDTH 4 0
BBX 5 4 1 6
BITMAP
083920
092A10
080700
515100
ENDCHAR
STARTCHAR quotedblbase
ENCODING 8222
SWIDTH 192 0
DWIDTH 5 0
BBX 4 4 0 -2
BITMAP
0B1B
0B0C
1716
6160
ENDCHAR
STARTCHAR dagger
ENCODING 8224
SWIDTH 185 0
DWIDTH 4 0
BBX 6 16 0 -3
BITMAP
000030
000180
000730
000A00
001800
4DFEC9
007100
008000
007000
043000
060000
060000
060000
230000
500000
100000
ENDCHAR
STARTCHAR daggerdbl
ENCODING 8225
SWIDTH 185 0
DWIDTH 4 0
BBX 7 15 -1 -2
BITMAP
00000300
00001800
00006400
0000A000
00018000
018EFD90
00071000
00080000
00250000
00610000
7EFDC400
00600000
00500000
03300000
05000000
ENDCHAR
STARTCHAR bullet
ENCODING 8226
SWIDTH 207 0
DWIDTH 5 0
BBX 4 3 1 2
BITMAP
3DC0
9FF1
7E80
ENDCHAR
STARTCHAR ellipsis
ENCODING 8230
SWIDTH 376 0
DWIDTH 9 0
BBX 9 1 0 0
BITMAP
2B00B10A30
ENDCHAR
STARTCHAR perthousand
ENCODING 8240
SWIDTH 571 0
DWIDTH 14 0
BBX 14 11 0 -2
BITMAP
00000002600000
02CE2008000000
1B4A4071000000
54051440000000
73021728300660
15108363B073B2
00062800953081
00350B03483070
01700AA505C810
07100000000000
14000000000000
ENDCHAR
STARTCHAR guilsinglleft
ENCODING 8249
SWIDTH 189 0
DWIDTH 5 0
BBX 5 6 0 0
BITMAP
000350
006400
072000
5B1000
07B000
00A300
ENDCHAR
STARTCHAR guilsinglright
ENCODING 8250
SWIDTH 176 0
DWIDTH 4 0
BBX 5 6 -1 0
BITMAP
00D100
006B00
000880
002710
036000
350000
ENDCHAR
STARTCHAR fraction
ENCODING 8260
SWIDTH 220 0
DWIDTH 5 0
BBX 9 10 -1 -1
BITMAP
0000000020
0000000630
0000005400
0000046000
0000270000
0001700000
0008000000
0071000000
0630000000
3500000000
ENDCHAR
STARTCHAR Euro
ENCODING 8364
SWIDTH 360 0
DWIDTH 9 0
BBX 8 8 0 0
BITMAP
0004BEB1
00682176
02800013
3EFFF300
1A410000
4D310000
09400200
01812600
ENDCHAR
STARTCHAR trademark
ENCODING 8482
SWIDTH 389 0
DWIDTH 9 0
BBX 8 4 1 4
BITMAP
26741726
07015773
18062853
12221123
ENDCHAR
STARTCHAR minus
ENCODING 8722
SWIDTH 301 0
DWIDTH 7 0
BBX 6 1 1 3
BITMAP
8FFFF6
ENDCHAR
STARTCHAR fi
ENCODING 64257
SWIDTH 297 0
DWIDTH 7 0
BBX 20 24 -7 -6
BITMAP
00000000000000018CD3
00000000000000261037
00000000000001600001
00000000000007000000
00000000000044000000
00000000000090000000
00000000000550000000
00000000000A00000000
00000000003800140000
00000000009300700000
0000000000C004200000
00000000048000000000
00000001BFFEDC000000
000000012C2034000000
000000002B0090000000
00000000760380000000
00000000C10752000000
000000038008A2000000
00000009200000000000
00000028000000000000
00000081000000000000
00000530000000000000
60004300000000000000
99751000000000000000
ENDCHAR
STARTCHAR fl
ENCODING 64258
SWIDTH 290 0
DWIDTH 7 0
BBX 23 24 -7 -6
BITMAP
00000000000000003514CE10
00000000000000199AC61420
000000000000017002300000
000000000000070013000000
000000000000530030000000
000000000000900210000000
000000000006400400000000
00000000000B004100000000
000000000048006000000000
0000000000A3043000000000
0000000001C0070000000000
000000000580170000000000
00000000AFFEE30000000000
000000012C10700000000000
000000002B00900000000000
000000007504800000000000
00000000C107741000000000
000000038006D30000000000
000000091000000000000000
000000370000000000000000
000000810000000000000000
000005300000000000000000
600043000000000000000000
A96510000000000000000000
ENDCHAR
STARTCHAR .notdef
ENCODING -1
SWIDTH 150 0
DWIDTH 4 0
BBX 1 1 0 0
BITMAP
00
ENDCHAR
STARTCHAR .null
ENCODING -1
SWIDTH 0 0
DWIDTH 0 0
BBX 1 1 0 0
BITMAP
00
ENDCHAR
STARTCHAR nonmarkingreturn
ENCODING -1
SWIDTH 150 0
DWIDTH 4 0
BBX 1 1 0 0
BITMAP
00
ENDCHAR
ENDFONT
